<svg width="10" height="10" viewBox="0 0 10 10" fill="none" xmlns="http://www.w3.org/2000/svg">
<path fill-rule="evenodd" clip-rule="evenodd" d="M3.06303 1.93677L3.79427 2.66799L4.16977 2.2925H5.82987L6.18561 2.66799L6.93661 1.93677L4.99982 0L3.06303 1.93677ZM7.33197 3.79441L8.06321 3.06318L10 4.99995L8.06321 6.93671L7.33197 6.18572L7.68771 5.82999V4.1699L7.33197 3.79441ZM1.93679 3.0632L2.66802 3.79443L2.29252 4.16993V5.83001L2.66802 6.18575L1.93679 6.93674L0 4.99997L1.93679 3.0632ZM6.18561 7.33202L6.56111 7.68776L6.93661 8.06325L4.99982 10L3.06303 8.06325L3.43853 7.68776L3.79427 7.33202L4.16977 7.68776H5.82987L6.18561 7.33202Z" fill="#0064FF"/>
</svg>
