<svg width="255" height="43" viewBox="0 0 255 43" fill="none" xmlns="http://www.w3.org/2000/svg">
<path d="M58.2957 29.5067H59.781V38.9582H57.7421V33.2738L53.3674 38.9582H51.9497V29.5067H53.9885V35.1371L58.2957 29.5067Z" fill="#00003C"/>
<path d="M66.3613 31.667H68.3191V38.9582H66.3613V36.1632H63.7013V38.9582H61.7435V31.667H63.7013V34.3674H66.3613V31.667Z" fill="#00003C"/>
<path d="M76.1899 31.667V33.4493H73.8135V38.9582H71.8827V33.4493H69.5063V31.667H76.1899Z" fill="#00003C"/>
<path d="M84.3118 35.2991C84.3118 35.4881 84.2983 35.6772 84.2713 35.8662H78.749C78.9245 36.8653 79.5726 37.4189 80.5312 37.4189C81.2198 37.4189 81.7869 37.0949 82.084 36.5683H84.1498C83.6232 38.1616 82.2325 39.1742 80.5312 39.1742C78.3844 39.1742 76.7506 37.4999 76.7506 35.3126C76.7506 33.1252 78.3709 31.4645 80.5312 31.4645C82.7726 31.4645 84.3118 33.1928 84.3118 35.2991ZM80.5312 33.1523C79.6536 33.1523 79.0325 33.6653 78.803 34.5295H82.3405C82.057 33.6383 81.4224 33.1523 80.5312 33.1523Z" fill="#00003C"/>
<path d="M89.6847 31.4645C91.8856 31.4645 93.5059 33.1117 93.5059 35.3126C93.5059 37.527 91.8856 39.1877 89.6847 39.1877C88.9286 39.1877 88.24 38.9582 87.6864 38.5666V41.5911H85.7151V31.667H87.0113L87.3489 32.3421C87.97 31.7885 88.7801 31.4645 89.6847 31.4645ZM89.5227 37.3109C90.6704 37.3109 91.5075 36.4603 91.5075 35.3126C91.5075 34.1784 90.6704 33.3143 89.5227 33.3143C88.375 33.3143 87.5379 34.1784 87.5379 35.3126C87.5379 36.4603 88.375 37.3109 89.5227 37.3109Z" fill="#00003C"/>
<path d="M103.641 35.3396C103.641 37.4729 102.088 39.0527 99.928 39.1607V41.2535H98.1457V39.1607C95.9989 39.0527 94.4327 37.4729 94.4327 35.3396C94.4327 33.2063 96.0259 31.586 98.1457 31.478V29.4527H99.928V31.478C102.048 31.586 103.641 33.1928 103.641 35.3396ZM96.3365 35.3261C96.3365 36.5008 97.1061 37.3919 98.1728 37.4999V33.1523C97.1196 33.2603 96.3365 34.1784 96.3365 35.3261ZM99.901 37.4999C100.968 37.3919 101.751 36.4873 101.751 35.3261C101.751 34.1784 100.954 33.2603 99.901 33.1523V37.4999Z" fill="#00003C"/>
<path d="M112.134 35.2991C112.134 35.4881 112.12 35.6772 112.093 35.8662H106.571C106.746 36.8653 107.394 37.4189 108.353 37.4189C109.042 37.4189 109.609 37.0949 109.906 36.5683H111.972C111.445 38.1616 110.054 39.1742 108.353 39.1742C106.206 39.1742 104.572 37.4999 104.572 35.3126C104.572 33.1252 106.193 31.4645 108.353 31.4645C110.594 31.4645 112.134 33.1928 112.134 35.2991ZM108.353 33.1523C107.475 33.1523 106.854 33.6653 106.625 34.5295H110.162C109.879 33.6383 109.244 33.1523 108.353 33.1523Z" fill="#00003C"/>
<path d="M118.722 29.1826V30.6273H114.995V29.1826H118.722ZM118.843 31.667H119.95V38.9582H118.047V35.0966L114.658 38.9582H113.537V31.667H115.441V35.4881L118.843 31.667Z" fill="#00003C"/>
<path d="M125.233 39.1742C123.032 39.1742 121.358 37.4864 121.358 35.2991C121.358 33.1117 123.032 31.4645 125.246 31.4645C127.137 31.4645 128.595 32.6662 128.946 34.462H126.988C126.678 33.7463 126.016 33.3143 125.233 33.3143C124.166 33.3143 123.356 34.1784 123.356 35.3126C123.356 36.4333 124.18 37.3109 125.233 37.3109C126.03 37.3109 126.651 36.8788 126.988 36.0957H128.973C128.636 37.932 127.137 39.1742 125.233 39.1742Z" fill="#00003C"/>
<path d="M139.913 38.9582L139.252 37.1759H135.498L134.85 38.9582H132.676L136.389 29.5067H138.32L142.141 38.9582H139.913ZM137.375 32.0046L136.133 35.3936H138.617L137.375 32.0046Z" fill="#00003C"/>
<path d="M149.807 37.1219H150.712V40.6324H148.916V38.9582H144.352V40.6324H142.57V37.1219H143.326C143.893 36.6493 144.028 35.8392 144.406 31.667H149.807V37.1219ZM146.148 33.4088C146 35.6502 145.784 36.5818 145.352 37.1219H147.877V33.4088H146.148Z" fill="#00003C"/>
<path d="M161.716 38.9582H159.826L159.137 34.57L156.896 38.9717H156.504L154.263 34.57L153.588 38.9582H151.684L152.899 31.667H154.573L156.707 35.7987L158.854 31.667H160.514L161.716 38.9582Z" fill="#00003C"/>
<path d="M168.408 31.667H169.516V38.9582H167.612V35.0966L164.223 38.9582H163.102V31.667H165.006V35.4881L168.408 31.667Z" fill="#00003C"/>
<path d="M176.027 31.667H177.985V38.9582H176.027V36.1632H173.367V38.9582H171.409V31.667H173.367V34.3674H176.027V31.667Z" fill="#00003C"/>
<path d="M185.194 31.667H186.301V38.9582H184.397V35.0966L181.008 38.9582H179.887V31.667H181.791V35.4881L185.194 31.667Z" fill="#00003C"/>
<path d="M191.583 39.1742C189.383 39.1742 187.708 37.4864 187.708 35.2991C187.708 33.1117 189.383 31.4645 191.597 31.4645C193.487 31.4645 194.945 32.6662 195.296 34.462H193.339C193.028 33.7463 192.367 33.3143 191.583 33.3143C190.517 33.3143 189.707 34.1784 189.707 35.3126C189.707 36.4333 190.53 37.3109 191.583 37.3109C192.38 37.3109 193.001 36.8788 193.339 36.0957H195.324C194.986 37.932 193.487 39.1742 191.583 39.1742Z" fill="#00003C"/>
<path d="M202.509 31.667V33.4493H200.132V38.9582H198.202V33.4493H195.825V31.667H202.509Z" fill="#00003C"/>
<path d="M207.684 31.4645C209.884 31.4645 211.505 33.1117 211.505 35.3126C211.505 37.527 209.884 39.1877 207.684 39.1877C206.927 39.1877 206.239 38.9582 205.685 38.5666V41.5911H203.714V31.667H205.01L205.348 32.3421C205.969 31.7885 206.779 31.4645 207.684 31.4645ZM207.522 37.3109C208.669 37.3109 209.506 36.4603 209.506 35.3126C209.506 34.1784 208.669 33.3143 207.522 33.3143C206.374 33.3143 205.537 34.1784 205.537 35.3126C205.537 36.4603 206.374 37.3109 207.522 37.3109Z" fill="#00003C"/>
<path d="M218.858 31.667H220.33V38.9582H218.791L218.615 38.2966C217.994 38.8502 217.184 39.1742 216.253 39.1742C214.065 39.1742 212.431 37.5134 212.431 35.3126C212.431 33.1117 214.065 31.4645 216.253 31.4645C217.198 31.4645 218.021 31.802 218.656 32.3556L218.858 31.667ZM216.415 37.3109C217.562 37.3109 218.399 36.4603 218.399 35.3126C218.399 34.1649 217.562 33.3143 216.415 33.3143C215.267 33.3143 214.43 34.1649 214.43 35.3126C214.43 36.4468 215.267 37.3109 216.415 37.3109Z" fill="#00003C"/>
<path d="M228.208 31.667V33.4493H225.831V38.9582H223.901V33.4493H221.524V31.667H228.208Z" fill="#00003C"/>
<path d="M232.711 39.1742C230.456 39.1742 228.769 37.5134 228.769 35.3126C228.769 33.1117 230.456 31.4645 232.711 31.4645C234.966 31.4645 236.654 33.1117 236.654 35.3126C236.654 37.5134 234.966 39.1742 232.711 39.1742ZM232.711 37.3109C233.845 37.3109 234.655 36.5008 234.655 35.3126C234.655 34.1379 233.845 33.3143 232.711 33.3143C231.577 33.3143 230.767 34.1379 230.767 35.3126C230.767 36.5008 231.577 37.3109 232.711 37.3109Z" fill="#00003C"/>
<path d="M242.045 31.4645C244.246 31.4645 245.867 33.1117 245.867 35.3126C245.867 37.527 244.246 39.1877 242.045 39.1877C241.289 39.1877 240.601 38.9582 240.047 38.5666V41.5911H238.076V31.667H239.372L239.71 32.3421C240.331 31.7885 241.141 31.4645 242.045 31.4645ZM241.883 37.3109C243.031 37.3109 243.868 36.4603 243.868 35.3126C243.868 34.1784 243.031 33.3143 241.883 33.3143C240.736 33.3143 239.899 34.1784 239.899 35.3126C239.899 36.4603 240.736 37.3109 241.883 37.3109Z" fill="#00003C"/>
<path d="M253.22 31.667H254.692V38.9582H253.153L252.977 38.2966C252.356 38.8502 251.546 39.1742 250.615 39.1742C248.427 39.1742 246.793 37.5134 246.793 35.3126C246.793 33.1117 248.427 31.4645 250.615 31.4645C251.56 31.4645 252.383 31.802 253.018 32.3556L253.22 31.667ZM250.777 37.3109C251.924 37.3109 252.761 36.4603 252.761 35.3126C252.761 34.1649 251.924 33.3143 250.777 33.3143C249.629 33.3143 248.792 34.1649 248.792 35.3126C248.792 36.4468 249.629 37.3109 250.777 37.3109Z" fill="#00003C"/>
<path d="M22.2703 27.364H16.4277V15.6367H22.2703C25.488 15.6367 28.1129 18.2711 28.1129 21.5004C28.1129 24.7296 25.488 27.364 22.2703 27.364Z" fill="#0064FF"/>
<path d="M11.4311 16.3162L8.29816 13.1719L0 21.5L8.29816 29.8281L11.4311 26.5988L9.82231 25.0692V17.9308L11.4311 16.3162Z" fill="#00003C"/>
<path d="M34.5466 13.1719L31.4136 16.3162L32.9377 17.9308V25.0692L31.4136 26.5988L34.5466 29.8281L42.8447 21.5L34.5466 13.1719Z" fill="#00003C"/>
<path d="M13.1235 8.32809L16.2565 11.4724L17.8653 9.85774H24.9781L26.5022 11.4724L29.7199 8.32809L21.4217 0L13.1235 8.32809Z" fill="#00003C"/>
<path d="M28.111 33.057L26.5022 31.5273L24.9781 33.057H17.8653L16.2565 31.5273L14.7324 33.057L13.1235 34.6716L21.4217 42.9997L29.7199 34.6716L28.111 33.057Z" fill="#00003C"/>
<path d="M55.8467 1.31445V2.37212H53.4755V3.82641H55.3198V4.75187H53.4755V6.99941H52.1582V1.31445H55.8467Z" fill="#00003C"/>
<path d="M58.8759 1.31445V5.94174H61.1154V6.99941H57.5586V1.31445H58.8759Z" fill="#00003C"/>
<path d="M66.384 1.31445L68.2282 6.99941H66.9109L66.5157 5.67733H64.408L64.0127 6.99941H62.8271L64.6714 1.31445H66.384V1.31445ZM66.1205 4.75187L65.3301 2.23991L64.5397 4.75187H66.1205Z" fill="#00003C"/>
<path d="M71.5251 1.31445L73.6329 5.01628V1.31445H74.8185V6.99941H73.5011L71.1299 2.90095V6.99941H69.9443V1.31445H71.5251Z" fill="#00003C"/>
<path d="M76.5269 2.23991V1.31445H80.8741V2.37212H79.2933V6.99941H77.9759V2.23991H76.5269Z" fill="#00003C"/>
<path d="M60.544 17.8458C60.544 20.5652 58.5118 22.6047 55.7175 22.6047H52.1611V13.1719H55.7175C58.5118 13.1719 60.544 15.1264 60.544 17.8458ZM58.4271 17.8458C58.4271 16.1462 57.3263 15.0414 55.6328 15.0414H54.1933V20.7351H55.7175C57.3263 20.7351 58.4271 19.5454 58.4271 17.8458Z" fill="#0064FF"/>
<path d="M69.1787 19.546H63.6748C63.8441 20.5657 64.5215 21.0756 65.453 21.0756C66.1304 21.0756 66.7231 20.7357 66.9771 20.2258H69.094C68.5859 21.8404 67.1465 22.8602 65.453 22.8602C63.2514 22.8602 61.6426 21.1606 61.6426 18.9511C61.6426 16.7416 63.2514 15.042 65.453 15.042C67.7392 15.042 69.2633 16.7416 69.2633 18.8661C69.1787 19.1211 69.1787 19.376 69.1787 19.546ZM63.6748 18.1863H67.2311C66.9771 17.2515 66.2997 16.8266 65.453 16.8266C64.5215 16.8266 63.9288 17.3365 63.6748 18.1863Z" fill="#0064FF"/>
<path d="M74.0078 22.8602C71.8063 22.8602 70.1128 21.1606 70.1128 18.9511C70.1128 16.7416 71.8063 15.127 74.0078 15.127C75.8707 15.127 77.3949 16.3167 77.7336 18.1013H75.786C75.4473 17.3364 74.7699 16.9965 74.0078 16.9965C72.9071 16.9965 72.145 17.8463 72.145 19.0361C72.145 20.2258 72.9917 21.0756 74.0078 21.0756C74.7699 21.0756 75.4473 20.6507 75.786 19.8859H77.8182C77.3949 21.5855 75.8707 22.8602 74.0078 22.8602Z" fill="#0064FF"/>
<path d="M83.4903 22.6898L81.1194 19.2056V22.6898H79.1719V12.6621H81.1194V18.6107L83.321 15.3815H85.6072L83.1516 18.8657L85.8612 22.6898H83.4903V22.6898Z" fill="#0064FF"/>
<path d="M93.6529 18.1858V22.6898H91.7054V18.5258C91.7054 17.421 91.282 16.9111 90.4353 16.9111C89.4192 16.9111 88.8264 17.591 88.8264 18.8657V22.6898H86.8789V12.6621H88.8264V15.9763C89.4192 15.4665 90.1812 15.1265 91.028 15.1265C92.6368 15.1265 93.6529 16.3163 93.6529 18.1858Z" fill="#0064FF"/>
<path d="M94.9209 18.9511C94.9209 16.7416 96.6144 15.042 98.9006 15.042C101.187 15.042 102.88 16.6566 102.88 18.9511C102.88 21.1606 101.187 22.8602 98.9006 22.8602C96.6144 22.8602 94.9209 21.1606 94.9209 18.9511ZM100.848 18.9511C100.848 17.7614 100.001 16.9116 98.9006 16.9116C97.7999 16.9116 96.9531 17.7614 96.9531 18.9511C96.9531 20.1408 97.7999 20.9906 98.9006 20.9906C100.001 20.9906 100.848 20.1408 100.848 18.9511Z" fill="#0064FF"/>
<path d="M104.15 19.5449V15.2959H106.097V19.29C106.097 20.3098 106.69 20.9896 107.537 20.9896C108.468 20.9896 108.976 20.3947 108.976 19.29V15.2959H110.924V19.5449C110.924 21.4995 109.569 22.8592 107.452 22.8592C105.505 22.8592 104.15 21.4995 104.15 19.5449Z" fill="#0064FF"/>
<path d="M115.412 22.8602C113.549 22.8602 112.363 21.8404 112.363 20.2258H114.311C114.311 20.9056 114.819 21.2456 115.496 21.2456C116.004 21.2456 116.512 20.9906 116.512 20.4807C116.512 19.9708 115.835 19.8009 115.073 19.7159C113.887 19.5459 112.448 19.206 112.448 17.5064C112.448 16.1467 113.633 15.127 115.412 15.127C117.19 15.127 118.375 16.1467 118.375 17.5914H116.512C116.512 16.9965 116.089 16.7416 115.412 16.7416C114.819 16.7416 114.395 16.9965 114.395 17.4214C114.395 17.9313 114.988 18.0163 115.75 18.1863C116.936 18.4412 118.46 18.6961 118.46 20.4807C118.46 21.9254 117.19 22.8602 115.412 22.8602Z" fill="#0064FF"/>
<path d="M126.93 19.546H121.426C121.595 20.5657 122.273 21.0756 123.204 21.0756C123.881 21.0756 124.474 20.7357 124.728 20.2258H126.845C126.337 21.8404 124.897 22.8602 123.204 22.8602C121.002 22.8602 119.394 21.1606 119.394 18.9511C119.394 16.7416 121.002 15.042 123.204 15.042C125.49 15.042 127.014 16.7416 127.014 18.8661C127.014 19.1211 127.014 19.376 126.93 19.546ZM121.51 18.1863H125.067C124.813 17.2515 124.135 16.8266 123.289 16.8266C122.357 16.8266 121.68 17.3365 121.51 18.1863Z" fill="#0064FF"/>
</svg>
